# xmcd CD database file
#
# Track frame offsets:
#	150
#	20101
#	38674
#	52034
#	70335
#	97056
#
# Disc length: 1386 seconds
#
# Revision: 0
# Processed by: cddbd v1.4PL0 Copyright (c) Steve Scherf et al.
# Submitted via: CDex 1.50Beta5
#
DISCID=52056806
DTITLE=Jazz spring 2002 - Jazzliiton kiertueb‰ndit esitt‰ytyv‰t
DYEAR=2002
DGENRE=Jazz
TTITLE0=Final cut - U-street All Stars
TTITLE1=Saari - Joonatan Rautio Presence
TTITLE2=Landmark (radio edit) - MikaSonik
TTITLE3=Koiruus - Jim Beard and "Suomipojat"
TTITLE4=Second life - Jorma Tapio Kvartetti
TTITLE5=Kiertue-esittely - html‰‰ ilmeisesti
EXTD=YEAR: 2002
EXTT0=
EXTT1=
EXTT2=
EXTT3=
EXTT4=
EXTT5=
PLAYORDER=
